<svg width="16" height="16" viewBox="0 0 16 16" fill="none" xmlns="http://www.w3.org/2000/svg">
<path d="M0 15.2727C0 15.6655 0.327273 16 0.727273 16H10.1818C10.5891 16 10.9091 15.6655 10.9091 15.2727V14.5455H0V15.2727ZM5.45455 5.81818C2.72727 5.81818 0 7.27273 0 10.1818H10.9091C10.9091 7.27273 8.18182 5.81818 5.45455 5.81818ZM1.90545 8.72727C2.71273 7.6 4.42909 7.27273 5.45455 7.27273C6.48 7.27273 8.19636 7.6 9.00364 8.72727H1.90545ZM0 11.6364H10.9091V13.0909H0V11.6364ZM12.3636 2.90909V0H10.9091V2.90909H7.27273L7.44 4.36364H14.3927L13.3745 14.5455H12.3636V16H13.6145C14.2255 16 14.7273 15.5273 14.8 14.9309L16 2.90909H12.3636Z" fill="#800000"/>
</svg>
